# xmcd CD database file
# Copyright (C) 1995-1998 Ti Kan
#
# Track frame offsets:
#	150
#	10522
#	23325
#	33072
#	44227
#	54022
#	64260
#	75237
#	86767
#	96415
#	109852
#	120380
#	134335
#	146512
#	157850
#	169722
#	182330
#	194795
#	206657
#	218820
#	231390
#	244267
#	257847
#	271650
#	282315
#	294682
#	307882
#	320157
#	331465
#
# Disc length: 4640 seconds
#
# Revision: 1
# Processed by: cddbd v1.4PL0 Copyright (c) Steve Scherf et al.
# Submitted via: CDex 1.30Release
#
DISCID=9a121e1d
DTITLE=Hank Snow - The Singing Ranger Vol. 3 [CD05 of 12)
DYEAR=1992
DGENRE=Country
TTITLE0=Poor Little Jimmie 1961
TTITLE1=Beggar To A King 1961
TTITLE2=The Count Down 1966
TTITLE3=Down At The Pawnshop 1967
TTITLE4=I Know 1961
TTITLE5=You Take The Future (And I'll Take The Past) 1962
TTITLE6=Dog Bone 1962
TTITLE7=If I Try Hard Enough 1992
TTITLE8=You're Losing Your Baby 1992
TTITLE9=Poison Love (& Chet Atkins duet vocal) 1969
TTITLE10=A Legend In My Time 1961
TTITLE11=Bury Me Deep 1961
TTITLE12=Fraulein 1961
TTITLE13=Mansion On The Hill 1961
TTITLE14=Send Me The Pillow That You Dream On 1961
TTITLE15=A Petal From A Faded Rose 1961
TTITLE16=Return To Me 1961
TTITLE17=That Heart Belongs To Me 1961
TTITLE18=I'll Go On Alone 1961
TTITLE19=I Care No More 1961
TTITLE20=I Love You Because 1961
TTITLE21=Address Unknown 1961
TTITLE22=The Rhumba Boogie 1960
TTITLE23=Music Makin' Mama From Memphis 1960
TTITLE24=The Change Of The Tide 1960
TTITLE25=These Hands 1960
TTITLE26=Born For You 1968
TTITLE27=The Late And Great Love (Of My Heart) 1968
TTITLE28=Who Will Answer (Aleluya #1) 1968
EXTD=YEAR: 1992 ID3G:   2
EXTT0=
EXTT1=
EXTT2=
EXTT3=
EXTT4=
EXTT5=
EXTT6=
EXTT7=
EXTT8=
EXTT9=
EXTT10=
EXTT11=
EXTT12=
EXTT13=
EXTT14=
EXTT15=
EXTT16=
EXTT17=
EXTT18=
EXTT19=
EXTT20=
EXTT21=
EXTT22=
EXTT23=
EXTT24=
EXTT25=
EXTT26=
EXTT27=
EXTT28=
PLAYORDER=
